<?xml version="1.0" encoding="utf-8"?>
<svg xmlns="http://www.w3.org/2000/svg" style="margin: auto; background: none; display: block; shape-rendering: auto;" width="280" height="250" preserveAspectRatio="xMidYMid">
<style type="text/css">
  text {
    text-anchor: middle; font-size: 80px; opacity: 0;
  }
</style>
<g style="transform-origin:140px 125px;transform:scale(1)">
<g transform="translate(140,125)">
  <g transform="translate(0,0)"><g class="path" style="transform: scale(0.91); transform-origin: -113.32px 1.95911px; animation: 1s linear -0.586667s infinite normal forwards running breath-4be469d1-b28b-4fa5-87c4-b1c91359d3ab;"><path d="M19.52-2.16L19.52-2.16Q17.12 0.72 13.52 0.72L13.52 0.72L13.52 0.72Q9.92 0.72 7.88-1.12L7.88-1.12L7.88-1.12Q5.84-2.96 5.84-5.92L5.84-5.92L5.84-5.92Q5.84-6.96 7.12-14.64L7.12-14.64L9.76-28.96L6.40-28.96L6.56-30.40L10-30.40L10-30.40Q15.92-30.40 18.72-30.88L18.72-30.88L19.84-31.12L14.32-0.88L14.32-0.88Q16.72-1.12 18.32-3.12L18.32-3.12L19.52-2.16" fill="#290908" stroke="none" stroke-width="none" transform="translate(-126.15997982025146,17.159110370212137)" style="fill: rgb(41, 9, 8);"></path></g><g class="path" style="transform: scale(0.91); transform-origin: -109.56px -25.7609px; animation: 1s linear -0.513333s infinite normal forwards running breath-4be469d1-b28b-4fa5-87c4-b1c91359d3ab;"><path d="M12.48-38.80L12.48-38.80L12.48-38.80Q10.80-40.48 10.80-42.88L10.80-42.88L10.80-42.88Q10.80-45.28 12.48-47L12.48-47L12.48-47Q14.16-48.72 16.56-48.72L16.56-48.72L16.56-48.72Q18.96-48.72 20.68-47L20.68-47L20.68-47Q22.40-45.28 22.40-42.88L22.40-42.88L22.40-42.88Q22.40-40.48 20.68-38.80L20.68-38.80L20.68-38.80Q18.96-37.12 16.56-37.12L16.56-37.12L16.56-37.12Q14.16-37.12 12.48-38.80" fill="#290908" stroke="none" stroke-width="none" transform="translate(-126.15997982025146,17.159110370212137)" style="fill: rgb(73, 18, 18);"></path></g><g class="path" style="transform: scale(0.91); transform-origin: -89.52px -3.96089px; animation: 1s linear -0.44s infinite normal forwards running breath-4be469d1-b28b-4fa5-87c4-b1c91359d3ab;"><path d="M24.96-30.40L29.04-30.40L31.20-42.24L31.20-42.24Q37.12-42.24 40-42.72L40-42.72L41.04-42.96L41.04-42.96Q39.92-37.36 38.56-30.40L38.56-30.40L48.48-30.40L48.32-28.96L38.32-28.96L38.32-28.96Q34.32-8.32 34.32-4.08L34.32-4.08L34.32-4.08Q34.32-1.52 37.04-1.52L37.04-1.52L37.04-1.52Q39.76-1.52 42-4.96L42-4.96L42-4.96Q44.24-8.40 45.20-12.40L45.20-12.40L46.64-11.92L46.64-11.92Q43.68 0.72 34.40 0.72L34.40 0.72L34.40 0.72Q30.56 0.72 28-1.40L28-1.40L28-1.40Q25.44-3.52 25.44-7.32L25.44-7.32L25.44-7.32Q25.44-11.12 28.72-28.96L28.72-28.96L24.80-28.96L24.96-30.40" fill="#290908" stroke="none" stroke-width="none" transform="translate(-126.15997982025146,17.159110370212137)" style="fill: rgb(131, 26, 25);"></path></g><g class="path" style="transform: scale(0.91); transform-origin: -44.8px 1.95911px; animation: 1s linear -0.366667s infinite normal forwards running breath-4be469d1-b28b-4fa5-87c4-b1c91359d3ab;"><path d="M86.16-16.72L86.16-16.72L86.16-16.72Q84.48-18.40 84.48-20.80L84.48-20.80L84.48-20.80Q84.48-23.20 86.16-24.92L86.16-24.92L86.16-24.92Q87.84-26.64 90.24-26.64L90.24-26.64L90.24-26.64Q90.96-26.64 92.08-26.32L92.08-26.32L92.08-26.32Q90.56-29.12 86.40-29.12L86.40-29.12L86.40-29.12Q82.24-29.12 79.04-23.84L79.04-23.84L79.04-23.84Q75.84-18.56 75.84-8.16L75.84-8.16L75.84-8.16Q75.84-4.56 77.48-2.84L77.48-2.84L77.48-2.84Q79.12-1.12 81.60-1.12L81.60-1.12L81.60-1.12Q84.08-1.12 86.12-2.08L86.12-2.08L86.12-2.08Q88.16-3.04 89.36-4.36L89.36-4.36L89.36-4.36Q90.56-5.68 91.44-7.12L91.44-7.12L91.44-7.12Q93.04-9.76 93.04-10.48L93.04-10.48L94.48-9.84L94.48-9.84Q94.24-8.56 93.04-6.44L93.04-6.44L93.04-6.44Q91.84-4.32 90.40-2.96L90.40-2.96L90.40-2.96Q88.96-1.60 86.16-0.44L86.16-0.44L86.16-0.44Q83.36 0.72 79.92 0.72L79.92 0.72L79.92 0.72Q73.44 0.72 70.12-2.36L70.12-2.36L70.12-2.36Q66.80-5.44 66.80-10.80L66.80-10.80L66.80-10.80Q66.80-20.32 71.56-25.72L71.56-25.72L71.56-25.72Q76.32-31.12 84.48-31.12L84.48-31.12L84.48-31.12Q90-31.12 92.96-28.32L92.96-28.32L92.96-28.32Q95.92-25.52 95.92-20.96L95.92-20.96L95.92-20.96Q95.92-18.08 94.20-16.56L94.20-16.56L94.20-16.56Q92.48-15.04 90.16-15.04L90.16-15.04L90.16-15.04Q87.84-15.04 86.16-16.72" fill="#290908" stroke="none" stroke-width="none" transform="translate(-126.15997982025146,17.159110370212137)" style="fill: rgb(194, 66, 41);"></path></g><g class="path" style="transform: scale(0.91); transform-origin: -13.12px 1.95911px; animation: 1s linear -0.293333s infinite normal forwards running breath-4be469d1-b28b-4fa5-87c4-b1c91359d3ab;"><path d="M116.56-31.12L116.56-31.12L116.56-31.12Q126.72-31.12 126.72-23.04L126.72-23.04L126.72-23.04Q126.72-18 121.96-15.40L121.96-15.40L121.96-15.40Q117.20-12.80 108.40-12.72L108.40-12.72L108.40-12.72Q108.24-9.84 108.24-8.16L108.24-8.16L108.24-8.16Q108.24-4.56 109.88-2.84L109.88-2.84L109.88-2.84Q111.52-1.12 114-1.12L114-1.12L114-1.12Q116.48-1.12 118.52-2.08L118.52-2.08L118.52-2.08Q120.56-3.04 121.76-4.36L121.76-4.36L121.76-4.36Q122.96-5.68 123.84-7.12L123.84-7.12L123.84-7.12Q125.44-9.76 125.44-10.48L125.44-10.48L126.88-9.84L126.88-9.84Q126.64-8.56 125.44-6.44L125.44-6.44L125.44-6.44Q124.24-4.32 122.80-2.96L122.80-2.96L122.80-2.96Q121.36-1.60 118.56-0.44L118.56-0.44L118.56-0.44Q115.76 0.72 112.32 0.72L112.32 0.72L112.32 0.72Q105.84 0.72 102.52-2.36L102.52-2.36L102.52-2.36Q99.20-5.44 99.20-10.80L99.20-10.80L99.20-10.80Q99.20-20.32 103.92-25.72L103.92-25.72L103.92-25.72Q108.64-31.12 116.56-31.12zM124.72-23.04L124.72-23.04Q124.72-25.68 123.16-27.40L123.16-27.40L123.16-27.40Q121.60-29.12 118.52-29.12L118.52-29.12L118.52-29.12Q115.44-29.12 112.52-25.44L112.52-25.44L112.52-25.44Q109.60-21.76 108.64-14.56L108.64-14.56L108.64-14.56Q124.72-14.64 124.72-23.04L124.72-23.04" fill="#290908" stroke="none" stroke-width="none" transform="translate(-126.15997982025146,17.159110370212137)" style="fill: rgb(221, 132, 55);"></path></g><g class="path" style="transform: scale(0.91); transform-origin: 23.08px 1.95911px; animation: 1s linear -0.22s infinite normal forwards running breath-4be469d1-b28b-4fa5-87c4-b1c91359d3ab;"><path d="M162-0.88L162-0.88L162-0.88Q163.92-0.88 166-3.12L166-3.12L167.20-2.16L167.20-2.16Q166.64-1.04 164.72-0.16L164.72-0.16L164.72-0.16Q162.80 0.72 160.48 0.72L160.48 0.72L160.48 0.72Q153.20 0.72 153.20-5.84L153.20-5.84L153.20-5.84Q153.20-8.64 154.64-15.84L154.64-15.84L154.64-15.84Q156.08-23.04 156.08-25.28L156.08-25.28L156.08-25.28Q156.08-28.72 152.80-28.72L152.80-28.72L152.80-28.72Q150.16-28.72 147.72-25.28L147.72-25.28L147.72-25.28Q145.28-21.84 143.68-15.84L143.68-15.84L140.96-0.88L140.96-0.88Q143.44-1.12 145.04-3.12L145.04-3.12L146.24-2.16L146.24-2.16Q143.84 0.72 140.24 0.72L140.24 0.72L140.24 0.72Q136.64 0.72 134.60-1.12L134.60-1.12L134.60-1.12Q132.56-2.96 132.56-5.92L132.56-5.92L132.56-5.92Q132.56-7.04 133.84-14.72L133.84-14.72L136.48-29.52L136.48-29.52Q134.08-29.28 132.48-27.28L132.48-27.28L131.28-28.24L131.28-28.24Q133.68-31.12 137.32-31.12L137.32-31.12L137.32-31.12Q140.96-31.12 142.96-29.28L142.96-29.28L142.96-29.28Q144.96-27.44 144.96-24.08L144.96-24.08L144.96-23.60L144.96-23.60Q148.24-31.12 155.20-31.12L155.20-31.12L155.20-31.12Q159.92-31.12 162.56-28.44L162.56-28.44L162.56-28.44Q165.20-25.76 165.20-21.04L165.20-21.04L165.20-21.04Q165.20-18.56 163.68-11.48L163.68-11.48L163.68-11.48Q162.16-4.40 162-0.88" fill="#290908" stroke="none" stroke-width="none" transform="translate(-126.15997982025146,17.159110370212137)" style="fill: rgb(238, 180, 64);"></path></g><g class="path" style="transform: scale(0.91); transform-origin: 57.36px -3.96089px; animation: 1s linear -0.146667s infinite normal forwards running breath-4be469d1-b28b-4fa5-87c4-b1c91359d3ab;"><path d="M171.84-30.40L175.92-30.40L178.08-42.24L178.08-42.24Q184-42.24 186.88-42.72L186.88-42.72L187.92-42.96L187.92-42.96Q186.80-37.36 185.44-30.40L185.44-30.40L195.36-30.40L195.20-28.96L185.20-28.96L185.20-28.96Q181.20-8.32 181.20-4.08L181.20-4.08L181.20-4.08Q181.20-1.52 183.92-1.52L183.92-1.52L183.92-1.52Q186.64-1.52 188.88-4.96L188.88-4.96L188.88-4.96Q191.12-8.40 192.08-12.40L192.08-12.40L193.52-11.92L193.52-11.92Q190.56 0.72 181.28 0.72L181.28 0.72L181.28 0.72Q177.44 0.72 174.88-1.40L174.88-1.40L174.88-1.40Q172.32-3.52 172.32-7.32L172.32-7.32L172.32-7.32Q172.32-11.12 175.60-28.96L175.60-28.96L171.68-28.96L171.84-30.40" fill="#290908" stroke="none" stroke-width="none" transform="translate(-126.15997982025146,17.159110370212137)" style="fill: rgb(216, 206, 167);"></path></g><g class="path" style="transform: scale(0.91); transform-origin: 84.32px 1.95911px; animation: 1s linear -0.0733333s infinite normal forwards running breath-4be469d1-b28b-4fa5-87c4-b1c91359d3ab;"><path d="M214-31.12L214-31.12L214-31.12Q224.16-31.12 224.16-23.04L224.16-23.04L224.16-23.04Q224.16-18 219.40-15.40L219.40-15.40L219.40-15.40Q214.64-12.80 205.84-12.72L205.84-12.72L205.84-12.72Q205.68-9.84 205.68-8.16L205.68-8.16L205.68-8.16Q205.68-4.56 207.32-2.84L207.32-2.84L207.32-2.84Q208.96-1.12 211.44-1.12L211.44-1.12L211.44-1.12Q213.92-1.12 215.96-2.08L215.96-2.08L215.96-2.08Q218-3.04 219.20-4.36L219.20-4.36L219.20-4.36Q220.40-5.68 221.28-7.12L221.28-7.12L221.28-7.12Q222.88-9.76 222.88-10.48L222.88-10.48L224.32-9.84L224.32-9.84Q224.08-8.56 222.88-6.44L222.88-6.44L222.88-6.44Q221.68-4.32 220.24-2.96L220.24-2.96L220.24-2.96Q218.80-1.60 216-0.44L216-0.44L216-0.44Q213.20 0.72 209.76 0.72L209.76 0.72L209.76 0.72Q203.28 0.72 199.96-2.36L199.96-2.36L199.96-2.36Q196.64-5.44 196.64-10.80L196.64-10.80L196.64-10.80Q196.64-20.32 201.36-25.72L201.36-25.72L201.36-25.72Q206.08-31.12 214-31.12zM222.16-23.04L222.16-23.04Q222.16-25.68 220.60-27.40L220.60-27.40L220.60-27.40Q219.04-29.12 215.96-29.12L215.96-29.12L215.96-29.12Q212.88-29.12 209.96-25.44L209.96-25.44L209.96-25.44Q207.04-21.76 206.08-14.56L206.08-14.56L206.08-14.56Q222.16-14.64 222.16-23.04L222.16-23.04" fill="#290908" stroke="none" stroke-width="none" transform="translate(-126.15997982025146,17.159110370212137)" style="fill: rgb(41, 9, 8);"></path></g><g class="path" style="transform: scale(0.91); transform-origin: 117.36px 1.59911px; animation: 1s linear 0s infinite normal forwards running breath-4be469d1-b28b-4fa5-87c4-b1c91359d3ab;"><path d="M230.16-27.28L228.96-28.24L228.96-28.24Q231.36-31.12 235-31.12L235-31.12L235-31.12Q238.64-31.12 240.64-29.28L240.64-29.28L240.64-29.28Q242.64-27.44 242.64-24.08L242.64-24.08L242.64-23.60L242.64-23.60Q246.24-31.12 252-31.12L252-31.12L252-31.12Q258.16-31.12 258.16-24.72L258.16-24.72L258.16-24.72Q258.16-22.08 256.40-19.12L256.40-19.12L256.40-19.12Q254.64-16.16 252.88-13.48L252.88-13.48L252.88-13.48Q251.12-10.80 251.12-8.72L251.12-8.72L249.20-8.72L249.20-8.72Q249.20-11.68 252.64-16.72L252.64-16.72L252.64-16.72Q256.08-21.76 256.08-24.52L256.08-24.52L256.08-24.52Q256.08-27.28 255-28.28L255-28.28L255-28.28Q253.92-29.28 251.80-29.28L251.80-29.28L251.80-29.28Q249.68-29.28 247.64-27.44L247.64-27.44L247.64-27.44Q245.60-25.60 244.24-22.80L244.24-22.80L244.24-22.80Q242.08-18.64 241.36-16L241.36-16L241.36-15.92L238.48 0L228.88 0L234.16-29.52L234.16-29.52Q231.76-29.28 230.16-27.28L230.16-27.28" fill="#290908" stroke="none" stroke-width="none" transform="translate(-126.15997982025146,17.159110370212137)" style="fill: rgb(73, 18, 18);"></path></g></g>
</g>
</g>
<style id="breath-4be469d1-b28b-4fa5-87c4-b1c91359d3ab" data-anikit="">@keyframes breath-4be469d1-b28b-4fa5-87c4-b1c91359d3ab
{
  0% {
    animation-timing-function: cubic-bezier(0.9647,0.2413,-0.0705,0.7911);
    transform: scale(0.9099999999999999);
  }
  51% {
    animation-timing-function: cubic-bezier(0.9226,0.2631,-0.0308,0.7628);
    transform: scale(1.02994);
  }
  100% {
    transform: scale(0.9099999999999999);
  }
}</style></svg>